<?xml version="1.0" encoding="UTF-8" standalone="no"?>
<!DOCTYPE svg PUBLIC "-//W3C//DTD SVG 1.0//EN" "http://www.w3.org/TR/2001/PR-SVG-20010719/DTD/svg10.dtd">
<svg width="43cm" height="41cm" viewBox="25 31 858 809" xmlns="http://www.w3.org/2000/svg" xmlns:xlink="http://www.w3.org/1999/xlink">
  <g>
    <ellipse style="fill: #000000" cx="70.9327" cy="108.966" rx="44.0673" ry="39.0336"/>
    <ellipse style="fill: none; fill-opacity:0; stroke-width: 2; stroke: #000000" cx="70.9327" cy="108.966" rx="44.0673" ry="39.0336"/>
    <text font-size="12.7998" style="fill: #000000;text-anchor:middle;font-family:sans-serif;font-style:normal;font-weight:normal" x="70.9327" y="113.766">
      <tspan x="70.9327" y="113.766"></tspan>
    </text>
  </g>
  <g>
    <ellipse style="fill: #ffffff" cx="183.933" cy="231.466" rx="30.0673" ry="27.5336"/>
    <ellipse style="fill: none; fill-opacity:0; stroke-width: 2; stroke: #000000" cx="183.933" cy="231.466" rx="30.0673" ry="27.5336"/>
    <text font-size="12.7998" style="fill: #000000;text-anchor:middle;font-family:sans-serif;font-style:normal;font-weight:normal" x="183.933" y="236.266">
      <tspan x="183.933" y="236.266">3</tspan>
    </text>
  </g>
  <g>
    <ellipse style="fill: #ffffff" cx="309.54" cy="229.02" rx="29.4596" ry="25.9798"/>
    <ellipse style="fill: none; fill-opacity:0; stroke-width: 2; stroke: #000000" cx="309.54" cy="229.02" rx="29.4596" ry="25.9798"/>
    <text font-size="12.7998" style="fill: #000000;text-anchor:middle;font-family:sans-serif;font-style:normal;font-weight:normal" x="309.54" y="233.82">
      <tspan x="309.54" y="233.82">4-5</tspan>
    </text>
  </g>
  <g>
    <ellipse style="fill: #ffffff" cx="619.933" cy="482.966" rx="41.0673" ry="34.0336"/>
    <ellipse style="fill: none; fill-opacity:0; stroke-width: 2; stroke: #000000" cx="619.933" cy="482.966" rx="41.0673" ry="34.0336"/>
    <text font-size="12.7998" style="fill: #000000;text-anchor:middle;font-family:sans-serif;font-style:normal;font-weight:normal" x="619.933" y="487.766">
      <tspan x="619.933" y="487.766"></tspan>
    </text>
  </g>
  <g>
    <ellipse style="fill: #ffffff" cx="620.933" cy="483.466" rx="26.0673" ry="25.5336"/>
    <ellipse style="fill: none; fill-opacity:0; stroke-width: 2; stroke: #000000" cx="620.933" cy="483.466" rx="26.0673" ry="25.5336"/>
    <text font-size="12.7998" style="fill: #000000;text-anchor:middle;font-family:sans-serif;font-style:normal;font-weight:normal" x="620.933" y="488.266">
      <tspan x="620.933" y="488.266"></tspan>
    </text>
  </g>
  <g>
    <ellipse style="fill: #ffffff" cx="187.433" cy="312.966" rx="26.5673" ry="22.0336"/>
    <ellipse style="fill: none; fill-opacity:0; stroke-width: 2; stroke: #000000" cx="187.433" cy="312.966" rx="26.5673" ry="22.0336"/>
    <text font-size="12.7998" style="fill: #000000;text-anchor:middle;font-family:sans-serif;font-style:normal;font-weight:normal" x="187.433" y="317.766">
      <tspan x="187.433" y="317.766">6</tspan>
    </text>
  </g>
  <g>
    <ellipse style="fill: #ffffff" cx="310.04" cy="314.02" rx="31.9596" ry="23.9798"/>
    <ellipse style="fill: none; fill-opacity:0; stroke-width: 2; stroke: #000000" cx="310.04" cy="314.02" rx="31.9596" ry="23.9798"/>
    <text font-size="12.7998" style="fill: #000000;text-anchor:middle;font-family:sans-serif;font-style:normal;font-weight:normal" x="310.04" y="318.82">
      <tspan x="310.04" y="318.82">7-8</tspan>
    </text>
  </g>
  <g>
    <ellipse style="fill: #ffffff" cx="187.433" cy="397.466" rx="27.5673" ry="21.5336"/>
    <ellipse style="fill: none; fill-opacity:0; stroke-width: 2; stroke: #000000" cx="187.433" cy="397.466" rx="27.5673" ry="21.5336"/>
    <text font-size="12.7998" style="fill: #000000;text-anchor:middle;font-family:sans-serif;font-style:normal;font-weight:normal" x="187.433" y="402.266">
      <tspan x="187.433" y="402.266">9</tspan>
    </text>
  </g>
  <g>
    <ellipse style="fill: #ffffff" cx="310.283" cy="400.444" rx="31.8821" ry="24.2438"/>
    <ellipse style="fill: none; fill-opacity:0; stroke-width: 2; stroke: #000000" cx="310.283" cy="400.444" rx="31.8821" ry="24.2438"/>
    <text font-size="12.7998" style="fill: #000000;text-anchor:middle;font-family:sans-serif;font-style:normal;font-weight:normal" x="310.283" y="405.244">
      <tspan x="310.283" y="405.244">10-11</tspan>
    </text>
  </g>
  <g>
    <ellipse style="fill: #ffffff" cx="188.043" cy="473.771" rx="26.9575" ry="25.2287"/>
    <ellipse style="fill: none; fill-opacity:0; stroke-width: 2; stroke: #000000" cx="188.043" cy="473.771" rx="26.9575" ry="25.2287"/>
    <text font-size="12.7998" style="fill: #000000;text-anchor:middle;font-family:sans-serif;font-style:normal;font-weight:normal" x="188.043" y="478.571">
      <tspan x="188.043" y="478.571">12</tspan>
    </text>
  </g>
  <g>
    <ellipse style="fill: #ffffff" cx="306.589" cy="480.404" rx="32.1885" ry="24.2038"/>
    <ellipse style="fill: none; fill-opacity:0; stroke-width: 2; stroke: #000000" cx="306.589" cy="480.404" rx="32.1885" ry="24.2038"/>
    <text font-size="12.7998" style="fill: #000000;text-anchor:middle;font-family:sans-serif;font-style:normal;font-weight:normal" x="306.589" y="485.204">
      <tspan x="306.589" y="485.204">13-14</tspan>
    </text>
  </g>
  <g>
    <ellipse style="fill: #ffffff" cx="186.433" cy="556.466" rx="26.5673" ry="25.5336"/>
    <ellipse style="fill: none; fill-opacity:0; stroke-width: 2; stroke: #000000" cx="186.433" cy="556.466" rx="26.5673" ry="25.5336"/>
    <text font-size="12.7998" style="fill: #000000;text-anchor:middle;font-family:sans-serif;font-style:normal;font-weight:normal" x="186.433" y="561.266">
      <tspan x="186.433" y="561.266">15</tspan>
    </text>
  </g>
  <g>
    <ellipse style="fill: #ffffff" cx="307.933" cy="562.966" rx="34.0673" ry="27.0336"/>
    <ellipse style="fill: none; fill-opacity:0; stroke-width: 2; stroke: #000000" cx="307.933" cy="562.966" rx="34.0673" ry="27.0336"/>
    <text font-size="12.7998" style="fill: #000000;text-anchor:middle;font-family:sans-serif;font-style:normal;font-weight:normal" x="307.933" y="567.766">
      <tspan x="307.933" y="567.766">16-17</tspan>
    </text>
  </g>
  <g>
    <ellipse style="fill: #ffffff" cx="150.543" cy="645.771" rx="28.4575" ry="22.2287"/>
    <ellipse style="fill: none; fill-opacity:0; stroke-width: 2; stroke: #000000" cx="150.543" cy="645.771" rx="28.4575" ry="22.2287"/>
    <text font-size="12.7998" style="fill: #000000;text-anchor:middle;font-family:sans-serif;font-style:normal;font-weight:normal" x="150.543" y="650.571">
      <tspan x="150.543" y="650.571">18</tspan>
    </text>
  </g>
  <g>
    <ellipse style="fill: #ffffff" cx="312.21" cy="647.686" rx="32.8093" ry="23.4859"/>
    <ellipse style="fill: none; fill-opacity:0; stroke-width: 2; stroke: #000000" cx="312.21" cy="647.686" rx="32.8093" ry="23.4859"/>
    <text font-size="12.7998" style="fill: #000000;text-anchor:middle;font-family:sans-serif;font-style:normal;font-weight:normal" x="312.21" y="652.486">
      <tspan x="312.21" y="652.486">19-20</tspan>
    </text>
  </g>
  <g>
    <ellipse style="fill: #ffffff" cx="95.5425" cy="708.271" rx="27.4575" ry="24.7287"/>
    <ellipse style="fill: none; fill-opacity:0; stroke-width: 2; stroke: #000000" cx="95.5425" cy="708.271" rx="27.4575" ry="24.7287"/>
    <text font-size="12.7998" style="fill: #000000;text-anchor:middle;font-family:sans-serif;font-style:normal;font-weight:normal" x="95.5425" y="713.071">
      <tspan x="95.5425" y="713.071">21</tspan>
    </text>
  </g>
  <g>
    <ellipse style="fill: #ffffff" cx="318.257" cy="725.162" rx="28.8562" ry="28.9621"/>
    <ellipse style="fill: none; fill-opacity:0; stroke-width: 2; stroke: #000000" cx="318.257" cy="725.162" rx="28.8562" ry="28.9621"/>
    <text font-size="12.7998" style="fill: #000000;text-anchor:middle;font-family:sans-serif;font-style:normal;font-weight:normal" x="318.257" y="729.962">
      <tspan x="318.257" y="729.962">22-23</tspan>
    </text>
  </g>
  <g>
    <ellipse style="fill: #ffffff" cx="63.5425" cy="780.271" rx="26.4575" ry="25.7287"/>
    <ellipse style="fill: none; fill-opacity:0; stroke-width: 2; stroke: #000000" cx="63.5425" cy="780.271" rx="26.4575" ry="25.7287"/>
    <text font-size="12.7998" style="fill: #000000;text-anchor:middle;font-family:sans-serif;font-style:normal;font-weight:normal" x="63.5425" y="785.071">
      <tspan x="63.5425" y="785.071">24</tspan>
    </text>
  </g>
  <g>
    <ellipse style="fill: #ffffff" cx="440.543" cy="816.771" rx="31.4575" ry="22.2287"/>
    <ellipse style="fill: none; fill-opacity:0; stroke-width: 2; stroke: #000000" cx="440.543" cy="816.771" rx="31.4575" ry="22.2287"/>
    <text font-size="12.7998" style="fill: #000000;text-anchor:middle;font-family:sans-serif;font-style:normal;font-weight:normal" x="440.543" y="821.571">
      <tspan x="440.543" y="821.571">25</tspan>
    </text>
  </g>
  <g>
    <line style="fill: none; fill-opacity:0; stroke-width: 2; stroke: #000000" x1="214.977" y1="230.677" x2="270.348" y2="229.268"/>
    <polygon style="fill: #000000" points="277.845,229.077 267.976,234.33 270.348,229.268 267.721,224.333 "/>
    <polygon style="fill: none; fill-opacity:0; stroke-width: 2; stroke: #000000" points="277.845,229.077 267.976,234.33 270.348,229.268 267.721,224.333 "/>
  </g>
  <g>
    <line style="fill: none; fill-opacity:0; stroke-width: 2; stroke: #000000" x1="336.758" y1="238.962" x2="574.904" y2="463.267"/>
    <polygon style="fill: #000000" points="580.364,468.409 569.656,465.193 574.904,463.267 576.512,457.913 "/>
    <polygon style="fill: none; fill-opacity:0; stroke-width: 2; stroke: #000000" points="580.364,468.409 569.656,465.193 574.904,463.267 576.512,457.913 "/>
  </g>
  <g>
    <line style="fill: none; fill-opacity:0; stroke-width: 2; stroke: #000000" x1="339.567" y1="323.197" x2="570.768" y2="477.56"/>
    <polygon style="fill: #000000" points="577.006,481.725 565.913,480.33 570.768,477.56 571.465,472.014 "/>
    <polygon style="fill: none; fill-opacity:0; stroke-width: 2; stroke: #000000" points="577.006,481.725 565.913,480.33 570.768,477.56 571.465,472.014 "/>
  </g>
  <g>
    <line style="fill: none; fill-opacity:0; stroke-width: 2; stroke: #000000" x1="340.15" y1="410.947" x2="572.807" y2="492.761"/>
    <polygon style="fill: #000000" points="579.882,495.249 568.79,496.648 572.807,492.761 572.107,487.214 "/>
    <polygon style="fill: none; fill-opacity:0; stroke-width: 2; stroke: #000000" points="579.882,495.249 568.79,496.648 572.807,492.761 572.107,487.214 "/>
  </g>
  <g>
    <line style="fill: none; fill-opacity:0; stroke-width: 2; stroke: #000000" x1="339" y1="487" x2="581.188" y2="506.26"/>
    <polygon style="fill: #000000" points="588.665,506.855 578.3,511.046 581.188,506.26 579.093,501.078 "/>
    <polygon style="fill: none; fill-opacity:0; stroke-width: 2; stroke: #000000" points="588.665,506.855 578.3,511.046 581.188,506.26 579.093,501.078 "/>
  </g>
  <g>
    <line style="fill: none; fill-opacity:0; stroke-width: 2; stroke: #000000" x1="343" y1="568" x2="594.68" y2="516.366"/>
    <polygon style="fill: #000000" points="602.027,514.859 593.235,521.766 594.68,516.366 591.226,511.97 "/>
    <polygon style="fill: none; fill-opacity:0; stroke-width: 2; stroke: #000000" points="602.027,514.859 593.235,521.766 594.68,516.366 591.226,511.97 "/>
  </g>
  <g>
    <line style="fill: none; fill-opacity:0; stroke-width: 2; stroke: #000000" x1="345.019" y1="647.686" x2="611.14" y2="521.18"/>
    <polygon style="fill: #000000" points="617.913,517.96 611.028,526.769 611.14,521.18 606.735,517.738 "/>
    <polygon style="fill: none; fill-opacity:0; stroke-width: 2; stroke: #000000" points="617.913,517.96 611.028,526.769 611.14,521.18 606.735,517.738 "/>
  </g>
  <g>
    <line style="fill: none; fill-opacity:0; stroke-width: 2; stroke: #000000" x1="347.113" y1="725.162" x2="627.786" y2="520.152"/>
    <polygon style="fill: #000000" points="633.843,515.728 628.717,525.664 627.786,520.152 622.818,517.589 "/>
    <polygon style="fill: none; fill-opacity:0; stroke-width: 2; stroke: #000000" points="633.843,515.728 628.717,525.664 627.786,520.152 622.818,517.589 "/>
  </g>
  <g>
    <line style="fill: none; fill-opacity:0; stroke-width: 2; stroke: #000000" x1="469.605" y1="808.265" x2="643.991" y2="515.397"/>
    <polygon style="fill: #000000" points="647.828,508.953 647.008,520.103 643.991,515.397 638.415,514.987 "/>
    <polygon style="fill: none; fill-opacity:0; stroke-width: 2; stroke: #000000" points="647.828,508.953 647.008,520.103 643.991,515.397 638.415,514.987 "/>
  </g>
  <g>
    <line style="fill: none; fill-opacity:0; stroke-width: 2; stroke: #000000" x1="214" y1="312.966" x2="268.346" y2="313.86"/>
    <polygon style="fill: #000000" points="275.845,313.983 265.764,318.818 268.346,313.86 265.929,308.82 "/>
    <polygon style="fill: none; fill-opacity:0; stroke-width: 2; stroke: #000000" points="275.845,313.983 265.764,318.818 268.346,313.86 265.929,308.82 "/>
  </g>
  <g>
    <line style="fill: none; fill-opacity:0; stroke-width: 2; stroke: #000000" x1="215" y1="397.466" x2="268.675" y2="399.987"/>
    <polygon style="fill: #000000" points="276.167,400.339 265.944,404.865 268.675,399.987 266.413,394.876 "/>
    <polygon style="fill: none; fill-opacity:0; stroke-width: 2; stroke: #000000" points="276.167,400.339 265.944,404.865 268.675,399.987 266.413,394.876 "/>
  </g>
  <g>
    <line style="fill: none; fill-opacity:0; stroke-width: 2; stroke: #000000" x1="215.979" y1="472.944" x2="267.119" y2="471.43"/>
    <polygon style="fill: #000000" points="274.616,471.208 264.768,476.502 267.119,471.43 264.472,466.506 "/>
    <polygon style="fill: none; fill-opacity:0; stroke-width: 2; stroke: #000000" points="274.616,471.208 264.768,476.502 267.119,471.43 264.472,466.506 "/>
  </g>
  <g>
    <line style="fill: none; fill-opacity:0; stroke-width: 2; stroke: #000000" x1="213" y1="556.466" x2="264.184" y2="561.932"/>
    <polygon style="fill: #000000" points="271.642,562.729 261.168,566.639 264.184,561.932 262.23,556.695 "/>
    <polygon style="fill: none; fill-opacity:0; stroke-width: 2; stroke: #000000" points="271.642,562.729 261.168,566.639 264.184,561.932 262.23,556.695 "/>
  </g>
  <g>
    <line style="fill: none; fill-opacity:0; stroke-width: 2; stroke: #000000" x1="176.834" y1="654.278" x2="269.685" y2="648.311"/>
    <polygon style="fill: #000000" points="277.169,647.83 267.511,653.461 269.685,648.311 266.869,643.481 "/>
    <polygon style="fill: none; fill-opacity:0; stroke-width: 2; stroke: #000000" points="277.169,647.83 267.511,653.461 269.685,648.311 266.869,643.481 "/>
  </g>
  <g>
    <line style="fill: none; fill-opacity:0; stroke-width: 2; stroke: #000000" x1="120.91" y1="717.735" x2="279.674" y2="724.734"/>
    <polygon style="fill: #000000" points="287.167,725.064 276.956,729.619 279.674,724.734 277.397,719.628 "/>
    <polygon style="fill: none; fill-opacity:0; stroke-width: 2; stroke: #000000" points="287.167,725.064 276.956,729.619 279.674,724.734 277.397,719.628 "/>
  </g>
  <g>
    <line style="fill: none; fill-opacity:0; stroke-width: 2; stroke: #000000" x1="90" y1="780.271" x2="399.412" y2="815.665"/>
    <polygon style="fill: #000000" points="406.863,816.517 396.36,820.348 399.412,815.665 397.496,810.413 "/>
    <polygon style="fill: none; fill-opacity:0; stroke-width: 2; stroke: #000000" points="406.863,816.517 396.36,820.348 399.412,815.665 397.496,810.413 "/>
  </g>
  <g>
    <ellipse style="fill: #ffffff" cx="74.4327" cy="320.466" rx="25.5673" ry="24.5336"/>
    <ellipse style="fill: none; fill-opacity:0; stroke-width: 2; stroke: #000000" cx="74.4327" cy="320.466" rx="25.5673" ry="24.5336"/>
    <text font-size="12.7998" style="fill: #000000;text-anchor:middle;font-family:sans-serif;font-style:normal;font-weight:normal" x="74.4327" y="325.266">
      <tspan x="74.4327" y="325.266">2</tspan>
    </text>
  </g>
  <g>
    <line style="fill: none; fill-opacity:0; stroke-width: 2; stroke: #000000" x1="70.9327" y1="148" x2="74.2024" y2="286.199"/>
    <polygon style="fill: #000000" points="74.3798,293.697 69.1447,283.818 74.2024,286.199 79.1419,283.582 "/>
    <polygon style="fill: none; fill-opacity:0; stroke-width: 2; stroke: #000000" points="74.3798,293.697 69.1447,283.818 74.2024,286.199 79.1419,283.582 "/>
  </g>
  <g>
    <line style="fill: none; fill-opacity:0; stroke-width: 2; stroke: #000000" x1="92.5115" y1="303.118" x2="149.132" y2="248.747"/>
    <polygon style="fill: #000000" points="154.541,243.552 150.792,254.085 149.132,248.747 143.865,246.872 "/>
    <polygon style="fill: none; fill-opacity:0; stroke-width: 2; stroke: #000000" points="154.541,243.552 150.792,254.085 149.132,248.747 143.865,246.872 "/>
  </g>
  <g>
    <line style="fill: none; fill-opacity:0; stroke-width: 2; stroke: #000000" x1="101" y1="324" x2="153.16" y2="321.807"/>
    <polygon style="fill: #000000" points="160.654,321.492 150.872,326.908 153.16,321.807 150.452,316.917 "/>
    <polygon style="fill: none; fill-opacity:0; stroke-width: 2; stroke: #000000" points="160.654,321.492 150.872,326.908 153.16,321.807 150.452,316.917 "/>
  </g>
  <g>
    <line style="fill: none; fill-opacity:0; stroke-width: 2; stroke: #000000" x1="95.0013" y1="336.624" x2="154.308" y2="383.211"/>
    <polygon style="fill: #000000" points="160.205,387.844 149.253,385.599 154.308,383.211 155.43,377.735 "/>
    <polygon style="fill: none; fill-opacity:0; stroke-width: 2; stroke: #000000" points="160.205,387.844 149.253,385.599 154.308,383.211 155.43,377.735 "/>
  </g>
  <g>
    <line style="fill: none; fill-opacity:0; stroke-width: 2; stroke: #000000" x1="84.2169" y1="343.132" x2="157.818" y2="455.962"/>
    <polygon style="fill: #000000" points="161.915,462.244 152.264,456.6 157.818,455.962 160.64,451.136 "/>
    <polygon style="fill: none; fill-opacity:0; stroke-width: 2; stroke: #000000" points="161.915,462.244 152.264,456.6 157.818,455.962 160.64,451.136 "/>
  </g>
  <g>
    <line style="fill: none; fill-opacity:0; stroke-width: 2; stroke: #000000" x1="83.6832" y1="344.395" x2="158.377" y2="537.614"/>
    <polygon style="fill: #000000" points="161.081,544.609 152.812,537.085 158.377,537.614 162.139,533.479 "/>
    <polygon style="fill: none; fill-opacity:0; stroke-width: 2; stroke: #000000" points="161.081,544.609 152.812,537.085 158.377,537.614 162.139,533.479 "/>
  </g>
  <g>
    <line style="fill: none; fill-opacity:0; stroke-width: 2; stroke: #000000" x1="79.7848" y1="345.476" x2="137.615" y2="615.714"/>
    <polygon style="fill: #000000" points="139.184,623.048 132.203,614.316 137.615,615.714 141.981,612.223 "/>
    <polygon style="fill: none; fill-opacity:0; stroke-width: 2; stroke: #000000" points="139.184,623.048 132.203,614.316 137.615,615.714 141.981,612.223 "/>
  </g>
  <g>
    <line style="fill: none; fill-opacity:0; stroke-width: 2; stroke: #000000" x1="75.1737" y1="345.972" x2="84.7523" y2="675.693"/>
    <polygon style="fill: #000000" points="84.9701,683.19 79.6818,673.339 84.7523,675.693 89.6776,673.049 "/>
    <polygon style="fill: none; fill-opacity:0; stroke-width: 2; stroke: #000000" points="84.9701,683.19 79.6818,673.339 84.7523,675.693 89.6776,673.049 "/>
  </g>
  <g>
    <line style="fill: none; fill-opacity:0; stroke-width: 2; stroke: #000000" x1="56.3539" y1="337.814" x2="53.486" y2="746.765"/>
    <polygon style="fill: #000000" points="53.4334,754.265 48.5036,744.23 53.486,746.765 58.5034,744.3 "/>
    <polygon style="fill: none; fill-opacity:0; stroke-width: 2; stroke: #000000" points="53.4334,754.265 48.5036,744.23 53.486,746.765 58.5034,744.3 "/>
  </g>
  <text font-size="12.7998" style="fill: #000000;text-anchor:start;font-family:sans-serif;font-style:normal;font-weight:normal" x="132" y="55">
    <tspan x="132" y="55">Complejidad Ciclomática:</tspan>
    <tspan x="132" y="71">CC = 25 - 19 + 2 = 6 + 2 = 8</tspan>
  </text>
  <text font-size="12.7998" style="fill: #000000;text-anchor:start;font-family:sans-serif;font-style:normal;font-weight:normal" x="333" y="44">
    <tspan x="333" y="44">Caminos :</tspan>
    <tspan x="333" y="60">Camino 1: inicio, 2, 3, 4, 5, fin</tspan>
    <tspan x="333" y="76">Camino 2: inicio, 2, 6, 7, 8, fin</tspan>
    <tspan x="333" y="92">Camino 3: inicio, 2, 9, 10, 11, fin</tspan>
    <tspan x="333" y="108">Camino 4: inicio, 2, 12, 13, 14, fin</tspan>
    <tspan x="333" y="124">Camino 5: inicio, 2, 15, 16, 17, fin</tspan>
    <tspan x="333" y="140">Camino 6: inicio, 2, 18, 19, 20, fin</tspan>
    <tspan x="333" y="156">Camino 7: inicio, 2, 21, 22, 23, fin</tspan>
    <tspan x="333" y="172">Camino 8: inicio, 2, 24, 25, fin</tspan>
  </text>
  <text font-size="12.7998" style="fill: #000000;text-anchor:start;font-family:sans-serif;font-style:normal;font-weight:normal" x="625" y="84">
    <tspan x="625" y="84">Camino Caso de prueba Resultado esperado</tspan>
    <tspan x="625" y="100">1 diasDeLaSemana(1)    "Hoy es lunes"</tspan>
    <tspan x="625" y="116">2 diasDeLaSemana(2)    "Hoy es martes"</tspan>
    <tspan x="625" y="132">3 diasDeLaSemana(3)    "Hoy es miércoles"</tspan>
    <tspan x="625" y="148">4 diasDeLaSemana(4)    "Hoy es jueves"</tspan>
    <tspan x="625" y="164">5 diasDeLaSemana(5)    "Hoy es viernes"</tspan>
    <tspan x="625" y="180">6 diasDeLaSemana(6)    "Hoy es sábado"</tspan>
    <tspan x="625" y="196">7 diasDeLaSemana(7)    "Hoy es domingo"</tspan>
    <tspan x="625" y="212">8 diasDeLaSemana(8)    "No es un día válido"</tspan>
  </text>
</svg>
