<?xml version="1.0" encoding="UTF-8" standalone="no"?>
<!DOCTYPE svg PUBLIC "-//W3C//DTD SVG 1.0//EN" "http://www.w3.org/TR/2001/PR-SVG-20010719/DTD/svg10.dtd">
<svg width="118cm" height="68cm" viewBox="-57 135 2350 1359" xmlns="http://www.w3.org/2000/svg" xmlns:xlink="http://www.w3.org/1999/xlink">
  <g>
    <ellipse style="fill: #000000" cx="127.5" cy="377.5" rx="69.5" ry="69.5"/>
    <ellipse style="fill: none; fill-opacity:0; stroke-width: 2; stroke: #000000" cx="127.5" cy="377.5" rx="69.5" ry="69.5"/>
    <ellipse style="fill: none; fill-opacity:0; stroke-width: 2; stroke: #000000" cx="127.5" cy="377.5" rx="69.5" ry="69.5"/>
  </g>
  <g>
    <line style="fill: none; fill-opacity:0; stroke-width: 2; stroke: #000000" x1="212.378" y1="382.568" x2="302.912" y2="382.9"/>
    <polyline style="fill: none; fill-opacity:0; stroke-width: 2; stroke: #000000" points="295.13,387.872 305.148,382.909 295.167,377.872 "/>
  </g>
  <g>
    <ellipse style="fill: #ffffff" cx="410" cy="381" rx="70" ry="70"/>
    <ellipse style="fill: none; fill-opacity:0; stroke-width: 2; stroke: #000000" cx="410" cy="381" rx="70" ry="70"/>
    <ellipse style="fill: none; fill-opacity:0; stroke-width: 2; stroke: #000000" cx="410" cy="381" rx="70" ry="70"/>
  </g>
  <g>
    <line style="fill: none; fill-opacity:0; stroke-width: 2; stroke: #000000" x1="474" y1="309" x2="547.074" y2="269.141"/>
    <polyline style="fill: none; fill-opacity:0; stroke-width: 2; stroke: #000000" points="542.652,277.249 549.037,268.071 537.864,268.47 "/>
  </g>
  <g>
    <line style="fill: none; fill-opacity:0; stroke-width: 2; stroke: #000000" x1="474" y1="453" x2="556.019" y2="494.963"/>
    <polyline style="fill: none; fill-opacity:0; stroke-width: 2; stroke: #000000" points="546.829,495.878 558.009,495.982 551.384,486.976 "/>
  </g>
  <g>
    <ellipse style="fill: #ffffff" cx="638.9" cy="232.2" rx="70" ry="70"/>
    <ellipse style="fill: none; fill-opacity:0; stroke-width: 2; stroke: #000000" cx="638.9" cy="232.2" rx="70" ry="70"/>
    <ellipse style="fill: none; fill-opacity:0; stroke-width: 2; stroke: #000000" cx="638.9" cy="232.2" rx="70" ry="70"/>
  </g>
  <g>
    <ellipse style="fill: #ffffff" cx="648.8" cy="501.4" rx="70" ry="70"/>
    <ellipse style="fill: none; fill-opacity:0; stroke-width: 2; stroke: #000000" cx="648.8" cy="501.4" rx="70" ry="70"/>
    <ellipse style="fill: none; fill-opacity:0; stroke-width: 2; stroke: #000000" cx="648.8" cy="501.4" rx="70" ry="70"/>
  </g>
  <g>
    <ellipse style="fill: #ffffff" cx="1716.43" cy="206.335" rx="70" ry="70"/>
    <ellipse style="fill: none; fill-opacity:0; stroke-width: 2; stroke: #000000" cx="1716.43" cy="206.335" rx="70" ry="70"/>
    <ellipse style="fill: none; fill-opacity:0; stroke-width: 2; stroke: #000000" cx="1716.43" cy="206.335" rx="70" ry="70"/>
  </g>
  <g>
    <ellipse style="fill: #ffffff" cx="1716.63" cy="207.235" rx="45.7" ry="45.7"/>
    <ellipse style="fill: none; fill-opacity:0; stroke-width: 2; stroke: #000000" cx="1716.63" cy="207.235" rx="45.7" ry="45.7"/>
    <ellipse style="fill: none; fill-opacity:0; stroke-width: 2; stroke: #000000" cx="1716.63" cy="207.235" rx="45.7" ry="45.7"/>
  </g>
  <text font-size="29.7345" style="fill: #000000;text-anchor:start;font-family:sans-serif;font-style:normal;font-weight:normal" x="403.516" y="391.375">
    <tspan x="403.516" y="391.375">2</tspan>
  </text>
  <text font-size="29.7345" style="fill: #000000;text-anchor:start;font-family:sans-serif;font-style:normal;font-weight:normal" x="631.119" y="238.684">
    <tspan x="631.119" y="238.684">3</tspan>
  </text>
  <text font-size="29.7345" style="fill: #000000;text-anchor:start;font-family:sans-serif;font-style:normal;font-weight:normal" x="643.613" y="510.478">
    <tspan x="643.613" y="510.478">4</tspan>
  </text>
  <g>
    <line style="fill: none; fill-opacity:0; stroke-width: 2; stroke: #000000" x1="733" y1="491" x2="834.528" y2="491"/>
    <polyline style="fill: none; fill-opacity:0; stroke-width: 2; stroke: #000000" points="826.764,496 836.764,491 826.764,486 "/>
  </g>
  <g>
    <ellipse style="fill: #ffffff" cx="930.5" cy="497" rx="70" ry="70"/>
    <ellipse style="fill: none; fill-opacity:0; stroke-width: 2; stroke: #000000" cx="930.5" cy="497" rx="70" ry="70"/>
    <ellipse style="fill: none; fill-opacity:0; stroke-width: 2; stroke: #000000" cx="930.5" cy="497" rx="70" ry="70"/>
  </g>
  <text font-size="29.7345" style="fill: #000000;text-anchor:start;font-family:sans-serif;font-style:normal;font-weight:normal" x="922.719" y="508.672">
    <tspan x="922.719" y="508.672">5</tspan>
  </text>
  <g>
    <line style="fill: none; fill-opacity:0; stroke-width: 2; stroke: #000000" x1="1018" y1="492" x2="1116.53" y2="492"/>
    <polyline style="fill: none; fill-opacity:0; stroke-width: 2; stroke: #000000" points="1108.76,497 1118.76,492 1108.76,487 "/>
  </g>
  <g>
    <ellipse style="fill: #ffffff" cx="1213.4" cy="502.2" rx="70" ry="70"/>
    <ellipse style="fill: none; fill-opacity:0; stroke-width: 2; stroke: #000000" cx="1213.4" cy="502.2" rx="70" ry="70"/>
    <ellipse style="fill: none; fill-opacity:0; stroke-width: 2; stroke: #000000" cx="1213.4" cy="502.2" rx="70" ry="70"/>
  </g>
  <text font-size="29.7345" style="fill: #000000;text-anchor:start;font-family:sans-serif;font-style:normal;font-weight:normal" x="1204.32" y="508.684">
    <tspan x="1204.32" y="508.684">6</tspan>
  </text>
  <g>
    <line style="fill: none; fill-opacity:0; stroke-width: 2; stroke: #000000" x1="1295" y1="483" x2="1378.53" y2="483"/>
    <polyline style="fill: none; fill-opacity:0; stroke-width: 2; stroke: #000000" points="1370.77,488 1380.77,483 1370.77,478 "/>
  </g>
  <g>
    <line style="fill: none; fill-opacity:0; stroke-width: 2; stroke: #000000" x1="1287" y1="549" x2="1399.1" y2="611.814"/>
    <polyline style="fill: none; fill-opacity:0; stroke-width: 2; stroke: #000000" points="1389.88,612.381 1401.05,612.907 1394.77,603.657 "/>
  </g>
  <g>
    <ellipse style="fill: #ffffff" cx="1489.3" cy="485.4" rx="70" ry="70"/>
    <ellipse style="fill: none; fill-opacity:0; stroke-width: 2; stroke: #000000" cx="1489.3" cy="485.4" rx="70" ry="70"/>
    <ellipse style="fill: none; fill-opacity:0; stroke-width: 2; stroke: #000000" cx="1489.3" cy="485.4" rx="70" ry="70"/>
  </g>
  <g>
    <ellipse style="fill: #ffffff" cx="1488.2" cy="659.6" rx="70" ry="70"/>
    <ellipse style="fill: none; fill-opacity:0; stroke-width: 2; stroke: #000000" cx="1488.2" cy="659.6" rx="70" ry="70"/>
    <ellipse style="fill: none; fill-opacity:0; stroke-width: 2; stroke: #000000" cx="1488.2" cy="659.6" rx="70" ry="70"/>
  </g>
  <g>
    <line style="fill: none; fill-opacity:0; stroke-width: 2; stroke: #000000" x1="719.004" y1="223" x2="1609.35" y2="223.299"/>
    <polyline style="fill: none; fill-opacity:0; stroke-width: 2; stroke: #000000" points="1601.59,228.296 1611.59,223.3 1601.59,218.296 "/>
  </g>
  <text font-size="29.7345" style="fill: #000000;text-anchor:start;font-family:sans-serif;font-style:normal;font-weight:normal" x="1484.11" y="493.181">
    <tspan x="1484.11" y="493.181">7</tspan>
  </text>
  <text font-size="29.7345" style="fill: #000000;text-anchor:start;font-family:sans-serif;font-style:normal;font-weight:normal" x="1479.12" y="671.272">
    <tspan x="1479.12" y="671.272">8</tspan>
  </text>
  <g>
    <line style="fill: none; fill-opacity:0; stroke-width: 2; stroke: #000000" x1="1484" y1="401" x2="1643.97" y2="280.459"/>
    <polyline style="fill: none; fill-opacity:0; stroke-width: 2; stroke: #000000" points="1640.78,289.125 1645.76,279.113 1634.76,281.138 "/>
  </g>
  <g>
    <line style="fill: none; fill-opacity:0; stroke-width: 2; stroke: #000000" x1="1574.01" y1="656" x2="1650.11" y2="613.193"/>
    <polyline style="fill: none; fill-opacity:0; stroke-width: 2; stroke: #000000" points="1645.79,621.357 1652.06,612.096 1640.89,612.641 "/>
  </g>
  <g>
    <ellipse style="fill: #ffffff" cx="1728.11" cy="564.097" rx="70" ry="70"/>
    <ellipse style="fill: none; fill-opacity:0; stroke-width: 2; stroke: #000000" cx="1728.11" cy="564.097" rx="70" ry="70"/>
    <ellipse style="fill: none; fill-opacity:0; stroke-width: 2; stroke: #000000" cx="1728.11" cy="564.097" rx="70" ry="70"/>
  </g>
  <text font-size="29.7345" style="fill: #000000;text-anchor:start;font-family:sans-serif;font-style:normal;font-weight:normal" x="1719.03" y="574.472">
    <tspan x="1719.03" y="574.472">9</tspan>
  </text>
  <g>
    <line style="fill: none; fill-opacity:0; stroke-width: 2; stroke: #000000" x1="1717.02" y1="481.372" x2="1717.56" y2="309.473"/>
    <polyline style="fill: none; fill-opacity:0; stroke-width: 2; stroke: #000000" points="1722.54,317.253 1717.57,307.237 1712.54,317.222 "/>
  </g>
  <g>
    <line style="fill: none; fill-opacity:0; stroke-width: 2; stroke: #000000" x1="1548.43" y1="735.552" x2="1634.07" y2="786.438"/>
    <polyline style="fill: none; fill-opacity:0; stroke-width: 2; stroke: #000000" points="1624.84,786.77 1635.99,787.58 1629.95,778.174 "/>
  </g>
  <g>
    <ellipse style="fill: #ffffff" cx="1736.02" cy="797.734" rx="70" ry="70"/>
    <ellipse style="fill: none; fill-opacity:0; stroke-width: 2; stroke: #000000" cx="1736.02" cy="797.734" rx="70" ry="70"/>
    <ellipse style="fill: none; fill-opacity:0; stroke-width: 2; stroke: #000000" cx="1736.02" cy="797.734" rx="70" ry="70"/>
  </g>
  <text font-size="29.7345" style="fill: #000000;text-anchor:start;font-family:sans-serif;font-style:normal;font-weight:normal" x="1725.64" y="809.405">
    <tspan x="1725.64" y="809.405">10</tspan>
  </text>
  <g>
    <line style="fill: none; fill-opacity:0; stroke-width: 2; stroke: #000000" x1="1811.69" y1="755.005" x2="1878.56" y2="688.138"/>
    <polyline style="fill: none; fill-opacity:0; stroke-width: 2; stroke: #000000" points="1876.6,697.163 1880.14,686.557 1869.53,690.092 "/>
  </g>
  <g>
    <ellipse style="fill: #ffffff" cx="1952.46" cy="625.513" rx="70" ry="70"/>
    <ellipse style="fill: none; fill-opacity:0; stroke-width: 2; stroke: #000000" cx="1952.46" cy="625.513" rx="70" ry="70"/>
    <ellipse style="fill: none; fill-opacity:0; stroke-width: 2; stroke: #000000" cx="1952.46" cy="625.513" rx="70" ry="70"/>
  </g>
  <text font-size="29.7345" style="fill: #000000;text-anchor:start;font-family:sans-serif;font-style:normal;font-weight:normal" x="1938.2" y="631.997">
    <tspan x="1938.2" y="631.997">11</tspan>
  </text>
  <text font-size="12.7998" style="fill: #000000;text-anchor:start;font-family:sans-serif;font-style:normal;font-weight:normal" x="1691.09" y="359.469">
    <tspan x="1691.09" y="359.469"></tspan>
  </text>
  <g>
    <line style="fill: none; fill-opacity:0; stroke-width: 2; stroke: #000000" x1="1919.33" y1="543.62" x2="1771.69" y2="288.124"/>
    <polyline style="fill: none; fill-opacity:0; stroke-width: 2; stroke: #000000" points="1779.9,292.345 1770.57,286.188 1771.24,297.348 "/>
  </g>
  <g>
    <line style="fill: none; fill-opacity:0; stroke-width: 2; stroke: #000000" x1="1829.85" y1="809.472" x2="2137.17" y2="809.472"/>
    <polyline style="fill: none; fill-opacity:0; stroke-width: 2; stroke: #000000" points="2129.4,814.472 2139.4,809.472 2129.4,804.472 "/>
  </g>
  <g>
    <ellipse style="fill: #ffffff" cx="2221.33" cy="800.846" rx="70" ry="70"/>
    <ellipse style="fill: none; fill-opacity:0; stroke-width: 2; stroke: #000000" cx="2221.33" cy="800.846" rx="70" ry="70"/>
    <ellipse style="fill: none; fill-opacity:0; stroke-width: 2; stroke: #000000" cx="2221.33" cy="800.846" rx="70" ry="70"/>
  </g>
  <text font-size="29.7345" style="fill: #000000;text-anchor:start;font-family:sans-serif;font-style:normal;font-weight:normal" x="2210.95" y="813.814">
    <tspan x="2210.95" y="813.814">13</tspan>
  </text>
  <text font-size="12.7998" style="fill: #000000;text-anchor:start;font-family:sans-serif;font-style:normal;font-weight:normal" x="1941.93" y="407.452">
    <tspan x="1941.93" y="407.452"></tspan>
  </text>
  <g>
    <line style="fill: none; fill-opacity:0; stroke-width: 2; stroke: #000000" x1="2202.59" y1="714.803" x2="1806.09" y2="256.51"/>
    <polyline style="fill: none; fill-opacity:0; stroke-width: 2; stroke: #000000" points="1814.95,259.11 1804.63,254.819 1807.39,265.653 "/>
  </g>
  <g>
    <rect style="fill: #00ff00" x="150.992" y="154.202" width="316.4" height="71.7687"/>
    <text font-size="29.7345" style="fill: #000000;text-anchor:start;font-family:sans-serif;font-style:normal;font-weight:normal" x="150.992" y="181.802">
      <tspan x="150.992" y="181.802">CC = 16 - 13 + 2 = 5</tspan>
      <tspan x="150.992" y="218.97"></tspan>
    </text>
  </g>
  <g>
    <rect style="fill: #1e90ff" x="93.9311" y="696.281" width="523.5" height="183.275"/>
    <text font-size="29.7345" style="fill: #000000;text-anchor:start;font-family:sans-serif;font-style:normal;font-weight:normal" x="93.9311" y="723.881">
      <tspan x="93.9311" y="723.881">Camino 1: Inicio 2 3 fin</tspan>
      <tspan x="93.9311" y="761.049">Camino 2: Inicio 2 4 5 6 7 fin</tspan>
      <tspan x="93.9311" y="798.218">Camino 3: Inicio 2 4 5 6 7 9 fin</tspan>
      <tspan x="93.9311" y="835.387">Camino 4: Inicio 2 4 5 6 8 10 11 fin</tspan>
      <tspan x="93.9311" y="872.555">Camino 5: Inicio 2 4 5 6 8 10 13 fin</tspan>
    </text>
  </g>
  <text font-size="24.0901" style="fill: #000000;text-anchor:start;font-family:sans-serif;font-style:normal;font-weight:normal" x="-23.3869" y="1033.37">
    <tspan x="-23.3869" y="1033.37">CAMINO </tspan>
  </text>
  <text font-size="24.0901" style="fill: #000000;text-anchor:start;font-family:sans-serif;font-style:normal;font-weight:normal" x="844.657" y="1025.21">
    <tspan x="844.657" y="1025.21">R. E.</tspan>
  </text>
  <text font-size="24.0901" style="fill: #000000;text-anchor:start;font-family:sans-serif;font-style:normal;font-weight:normal" x="321.125" y="1030.4">
    <tspan x="321.125" y="1030.4">C.P.</tspan>
  </text>
  <text font-size="24.0901" style="fill: #000000;text-anchor:start;font-family:sans-serif;font-style:normal;font-weight:normal" x="8.61149" y="1115.08">
    <tspan x="8.61149" y="1115.08">1</tspan>
  </text>
  <text font-size="24.0901" style="fill: #000000;text-anchor:start;font-family:sans-serif;font-style:normal;font-weight:normal" x="262.767" y="1108.21">
    <tspan x="262.767" y="1108.21">esVocal("ab");</tspan>
  </text>
  <text font-size="24.0901" style="fill: #000000;text-anchor:start;font-family:sans-serif;font-style:normal;font-weight:normal" x="650.153" y="1102.35">
    <tspan x="650.153" y="1102.35">"No has introducido un único carácter."</tspan>
  </text>
  <text font-size="24.0901" style="fill: #000000;text-anchor:start;font-family:sans-serif;font-style:normal;font-weight:normal" x="4.7568" y="1185.48">
    <tspan x="4.7568" y="1185.48">2</tspan>
  </text>
  <text font-size="24.0901" style="fill: #000000;text-anchor:start;font-family:sans-serif;font-style:normal;font-weight:normal" x="262.071" y="1192.21">
    <tspan x="262.071" y="1192.21">esVocal("$");</tspan>
  </text>
  <text font-size="24.0901" style="fill: #000000;text-anchor:start;font-family:sans-serif;font-style:normal;font-weight:normal" x="699.337" y="1188.84">
    <tspan x="699.337" y="1188.84">"El carácter no es una letra."</tspan>
  </text>
  <text font-size="24.0901" style="fill: #000000;text-anchor:start;font-family:sans-serif;font-style:normal;font-weight:normal" x="3.07501" y="1266.21">
    <tspan x="3.07501" y="1266.21">3</tspan>
  </text>
  <text font-size="24.0901" style="fill: #000000;text-anchor:start;font-family:sans-serif;font-style:normal;font-weight:normal" x="265.435" y="1267.89">
    <tspan x="265.435" y="1267.89">esVocal("a");</tspan>
  </text>
  <text font-size="24.0901" style="fill: #000000;text-anchor:start;font-family:sans-serif;font-style:normal;font-weight:normal" x="702.701" y="1267.89">
    <tspan x="702.701" y="1267.89">"El carácter es una vocal."</tspan>
  </text>
  <text font-size="24.0901" style="fill: #000000;text-anchor:start;font-family:sans-serif;font-style:normal;font-weight:normal" x="8.12039" y="1338.52">
    <tspan x="8.12039" y="1338.52">4</tspan>
  </text>
  <text font-size="24.0901" style="fill: #000000;text-anchor:start;font-family:sans-serif;font-style:normal;font-weight:normal" x="270.48" y="1336.84">
    <tspan x="270.48" y="1336.84">esVocal("y"); </tspan>
  </text>
  <text font-size="24.0901" style="fill: #000000;text-anchor:start;font-family:sans-serif;font-style:normal;font-weight:normal" x="593.384" y="1345.25">
    <tspan x="593.384" y="1345.25">"El carácter a veces es una vocal y a veces una consonante."</tspan>
  </text>
  <text font-size="24.0901" style="fill: #000000;text-anchor:start;font-family:sans-serif;font-style:normal;font-weight:normal" x="11.484" y="1409.16">
    <tspan x="11.484" y="1409.16">5</tspan>
  </text>
  <text font-size="24.0901" style="fill: #000000;text-anchor:start;font-family:sans-serif;font-style:normal;font-weight:normal" x="272.162" y="1404.11">
    <tspan x="272.162" y="1404.11">esVocal("z);</tspan>
  </text>
  <text font-size="24.0901" style="fill: #000000;text-anchor:start;font-family:sans-serif;font-style:normal;font-weight:normal" x="680.838" y="1417.57">
    <tspan x="680.838" y="1417.57">"El carácter es una consonante."</tspan>
  </text>
  <line style="fill: none; fill-opacity:0; stroke-width: 2; stroke: #000000" x1="-55.7877" y1="1062.71" x2="1192.1" y2="1062.71"/>
  <line style="fill: none; fill-opacity:0; stroke-width: 2; stroke: #000000" x1="-54.9559" y1="1143.09" x2="1192.93" y2="1143.09"/>
  <line style="fill: none; fill-opacity:0; stroke-width: 2; stroke: #000000" x1="-48.3969" y1="1232.56" x2="1199.49" y2="1232.56"/>
  <line style="fill: none; fill-opacity:0; stroke-width: 2; stroke: #000000" x1="-38.4744" y1="1306.9" x2="1209.42" y2="1306.9"/>
  <line style="fill: none; fill-opacity:0; stroke-width: 2; stroke: #000000" x1="-35.2789" y1="1376.19" x2="1212.61" y2="1376.19"/>
  <line style="fill: none; fill-opacity:0; stroke-width: 2; stroke: #000000" x1="-35.4471" y1="1452.2" x2="1212.44" y2="1452.2"/>
  <text font-size="12.7998" style="fill: #000000;text-anchor:start;font-family:sans-serif;font-style:normal;font-weight:normal" x="191.436" y="1621.07">
    <tspan x="191.436" y="1621.07"></tspan>
  </text>
  <line style="fill: none; fill-opacity:0; stroke-width: 2; stroke: #000000" x1="172.936" y1="1493.25" x2="172.936" y2="988.712"/>
  <line style="fill: none; fill-opacity:0; stroke-width: 2; stroke: #000000" x1="567.307" y1="1489.54" x2="567.307" y2="985.003"/>
</svg>
