<?xml version="1.0" encoding="UTF-8" standalone="no"?>
<!DOCTYPE svg PUBLIC "-//W3C//DTD SVG 1.0//EN" "http://www.w3.org/TR/2001/PR-SVG-20010719/DTD/svg10.dtd">
<svg width="25cm" height="22cm" viewBox="67 260 495 432" xmlns="http://www.w3.org/2000/svg" xmlns:xlink="http://www.w3.org/1999/xlink">
  <g>
    <ellipse style="fill: #000000" cx="212.433" cy="316.966" rx="53.5673" ry="55.0336"/>
    <ellipse style="fill: none; fill-opacity:0; stroke-width: 2; stroke: #000000" cx="212.433" cy="316.966" rx="53.5673" ry="55.0336"/>
    <text font-size="12.7998" style="fill: #000000;text-anchor:middle;font-family:sans-serif;font-style:normal;font-weight:normal" x="212.433" y="321.766">
      <tspan x="212.433" y="321.766"></tspan>
    </text>
  </g>
  <g>
    <ellipse style="fill: #ffffff" cx="367.433" cy="319.466" rx="42.5673" ry="33.5336"/>
    <ellipse style="fill: none; fill-opacity:0; stroke-width: 2; stroke: #000000" cx="367.433" cy="319.466" rx="42.5673" ry="33.5336"/>
    <text font-size="12.7998" style="fill: #000000;text-anchor:middle;font-family:sans-serif;font-style:normal;font-weight:normal" x="367.433" y="324.266">
      <tspan x="367.433" y="324.266">3</tspan>
    </text>
  </g>
  <g>
    <line style="fill: none; fill-opacity:0; stroke-width: 2; stroke: #000000" x1="266.947" y1="318.179" x2="315.132" y2="319.25"/>
    <polygon style="fill: #000000" points="322.63,319.417 312.521,324.193 315.132,319.25 312.744,314.196 "/>
    <polygon style="fill: none; fill-opacity:0; stroke-width: 2; stroke: #000000" points="322.63,319.417 312.521,324.193 315.132,319.25 312.744,314.196 "/>
  </g>
  <g>
    <ellipse style="fill: #ffffff" cx="521.933" cy="320.466" rx="39.0673" ry="34.5336"/>
    <ellipse style="fill: none; fill-opacity:0; stroke-width: 2; stroke: #000000" cx="521.933" cy="320.466" rx="39.0673" ry="34.5336"/>
    <text font-size="12.7998" style="fill: #000000;text-anchor:middle;font-family:sans-serif;font-style:normal;font-weight:normal" x="521.933" y="325.266">
      <tspan x="521.933" y="325.266"></tspan>
    </text>
  </g>
  <g>
    <ellipse style="fill: #ffffff" cx="522.933" cy="321.466" rx="25.0673" ry="21.5336"/>
    <ellipse style="fill: none; fill-opacity:0; stroke-width: 2; stroke: #000000" cx="522.933" cy="321.466" rx="25.0673" ry="21.5336"/>
    <text font-size="12.7998" style="fill: #000000;text-anchor:middle;font-family:sans-serif;font-style:normal;font-weight:normal" x="522.933" y="326.266">
      <tspan x="522.933" y="326.266"></tspan>
    </text>
  </g>
  <g>
    <line style="fill: none; fill-opacity:0; stroke-width: 2; stroke: #000000" x1="410" y1="319.466" x2="473.13" y2="320.333"/>
    <polygon style="fill: #000000" points="480.63,320.436 470.562,325.298 473.13,320.333 470.699,315.299 "/>
    <polygon style="fill: none; fill-opacity:0; stroke-width: 2; stroke: #000000" points="480.63,320.436 470.562,325.298 473.13,320.333 470.699,315.299 "/>
  </g>
  <g>
    <ellipse style="fill: #ffffff" cx="364.933" cy="424.466" rx="42.0673" ry="34.5336"/>
    <ellipse style="fill: none; fill-opacity:0; stroke-width: 2; stroke: #000000" cx="364.933" cy="424.466" rx="42.0673" ry="34.5336"/>
    <text font-size="12.7998" style="fill: #000000;text-anchor:middle;font-family:sans-serif;font-style:normal;font-weight:normal" x="364.933" y="429.266">
      <tspan x="364.933" y="429.266">4</tspan>
    </text>
  </g>
  <g>
    <line style="fill: none; fill-opacity:0; stroke-width: 2; stroke: #000000" x1="367.433" y1="353" x2="365.59" y2="380.219"/>
    <polygon style="fill: #000000" points="365.084,387.702 360.771,377.387 365.59,380.219 370.748,378.062 "/>
    <polygon style="fill: none; fill-opacity:0; stroke-width: 2; stroke: #000000" points="365.084,387.702 360.771,377.387 365.59,380.219 370.748,378.062 "/>
  </g>
  <g>
    <ellipse style="fill: #ffffff" cx="502.433" cy="433.534" rx="38.5673" ry="29.5336"/>
    <ellipse style="fill: none; fill-opacity:0; stroke-width: 2; stroke: #000000" cx="502.433" cy="433.534" rx="38.5673" ry="29.5336"/>
    <text font-size="12.7998" style="fill: #000000;text-anchor:middle;font-family:sans-serif;font-style:normal;font-weight:normal" x="502.433" y="438.334">
      <tspan x="502.433" y="438.334">7</tspan>
    </text>
  </g>
  <g>
    <line style="fill: none; fill-opacity:0; stroke-width: 2; stroke: #000000" x1="407.989" y1="423.522" x2="457.067" y2="422.445"/>
    <polygon style="fill: #000000" points="464.566,422.281 454.678,427.499 457.067,422.445 454.458,417.501 "/>
    <polygon style="fill: none; fill-opacity:0; stroke-width: 2; stroke: #000000" points="464.566,422.281 454.678,427.499 457.067,422.445 454.458,417.501 "/>
  </g>
  <g>
    <ellipse style="fill: #ffffff" cx="431.433" cy="524.534" rx="42.5673" ry="32.5336"/>
    <ellipse style="fill: none; fill-opacity:0; stroke-width: 2; stroke: #000000" cx="431.433" cy="524.534" rx="42.5673" ry="32.5336"/>
    <text font-size="12.7998" style="fill: #000000;text-anchor:middle;font-family:sans-serif;font-style:normal;font-weight:normal" x="431.433" y="529.334">
      <tspan x="431.433" y="529.334">5</tspan>
    </text>
  </g>
  <g>
    <line style="fill: none; fill-opacity:0; stroke-width: 2; stroke: #000000" x1="380.431" y1="457.278" x2="397.175" y2="492.725"/>
    <polygon style="fill: #000000" points="400.378,499.507 391.586,492.6 397.175,492.725 400.628,488.329 "/>
    <polygon style="fill: none; fill-opacity:0; stroke-width: 2; stroke: #000000" points="400.378,499.507 391.586,492.6 397.175,492.725 400.628,488.329 "/>
  </g>
  <g>
    <line style="fill: none; fill-opacity:0; stroke-width: 2; stroke: #000000" x1="431.433" y1="492" x2="408.213" y2="446.359"/>
    <polygon style="fill: #000000" points="404.812,439.675 413.803,446.32 408.213,446.359 404.89,450.855 "/>
    <polygon style="fill: none; fill-opacity:0; stroke-width: 2; stroke: #000000" points="404.812,439.675 413.803,446.32 408.213,446.359 404.89,450.855 "/>
  </g>
  <g>
    <line style="fill: none; fill-opacity:0; stroke-width: 2; stroke: #000000" x1="479.145" y1="408.892" x2="413.447" y2="339.375"/>
    <polygon style="fill: #000000" points="408.296,333.924 418.798,337.758 413.447,339.375 411.53,344.626 "/>
    <polygon style="fill: none; fill-opacity:0; stroke-width: 2; stroke: #000000" points="408.296,333.924 418.798,337.758 413.447,339.375 411.53,344.626 "/>
  </g>
  <text font-size="12.7998" style="fill: #000000;text-anchor:start;font-family:sans-serif;font-style:normal;font-weight:normal" x="70" y="466.067">
    <tspan x="70" y="466.067">Complejidad Ciclomática:</tspan>
    <tspan x="70" y="482.067"></tspan>
    <tspan x="70" y="498.067">7-6+2=3</tspan>
  </text>
  <text font-size="12.7998" style="fill: #000000;text-anchor:start;font-family:sans-serif;font-style:normal;font-weight:normal" x="67" y="526.067">
    <tspan x="67" y="526.067">Camino 1:  Inicio, 3, fin</tspan>
    <tspan x="67" y="542.067">Camino 2:  Inicio, 3, 4, 7, fin</tspan>
    <tspan x="67" y="558.067">Camino 3:  Inicio, 3, 4, 5, 4, 7, 3, fin</tspan>
    <tspan x="67" y="574.067"></tspan>
  </text>
  <text font-size="12.7998" style="fill: #000000;text-anchor:start;font-family:sans-serif;font-style:normal;font-weight:normal" x="71" y="593.067">
    <tspan x="71" y="593.067">Camino         Resultado Esperado        Resultado Real</tspan>
    <tspan x="71" y="609.067"></tspan>
    <tspan x="71" y="625.067">1                  trianguloFilas(0)                 ""</tspan>
    <tspan x="71" y="641.067"></tspan>
    <tspan x="71" y="657.067">2                  Camino No Ejecutable       Camino No Ejecutable</tspan>
    <tspan x="71" y="673.067"></tspan>
    <tspan x="71" y="689.067">3                  trianguloFilas(1)                "1\n"</tspan>
  </text>
</svg>
