<?xml version="1.0" encoding="UTF-8" standalone="no"?>
<!DOCTYPE svg PUBLIC "-//W3C//DTD SVG 1.0//EN" "http://www.w3.org/TR/2001/PR-SVG-20010719/DTD/svg10.dtd">
<svg width="75cm" height="25cm" viewBox="53 216 1484 496" xmlns="http://www.w3.org/2000/svg" xmlns:xlink="http://www.w3.org/1999/xlink">
  <g>
    <ellipse style="fill: #000000" cx="126.933" cy="372.966" rx="72.0673" ry="71.0336"/>
    <ellipse style="fill: none; fill-opacity:0; stroke-width: 2; stroke: #000000" cx="126.933" cy="372.966" rx="72.0673" ry="71.0336"/>
    <text font-size="12.7998" style="fill: #000000;text-anchor:middle;font-family:sans-serif;font-style:normal;font-weight:normal" x="126.933" y="376.866">
      <tspan x="126.933" y="376.866"></tspan>
    </text>
  </g>
  <g>
    <ellipse style="fill: #ffffff" cx="327.933" cy="373.466" rx="44.0673" ry="39.5336"/>
    <ellipse style="fill: none; fill-opacity:0; stroke-width: 2; stroke: #000000" cx="327.933" cy="373.466" rx="44.0673" ry="39.5336"/>
    <text font-size="12.7998" style="fill: #000000;text-anchor:middle;font-family:sans-serif;font-style:normal;font-weight:normal" x="327.933" y="377.366">
      <tspan x="327.933" y="377.366"></tspan>
    </text>
  </g>
  <g>
    <line style="fill: none; fill-opacity:0; stroke-width: 2; stroke: #000000" x1="199" y1="372.966" x2="279.393" y2="373.44"/>
    <polyline style="fill: none; fill-opacity:0; stroke-width: 2; stroke: #000000" points="271.6,378.394 281.629,373.453 271.659,368.394 "/>
  </g>
  <g>
    <ellipse style="fill: #ffffff" cx="494.967" cy="371.734" rx="46.0673" ry="39.5336"/>
    <ellipse style="fill: none; fill-opacity:0; stroke-width: 2; stroke: #000000" cx="494.967" cy="371.734" rx="46.0673" ry="39.5336"/>
    <text font-size="12.7998" style="fill: #000000;text-anchor:middle;font-family:sans-serif;font-style:normal;font-weight:normal" x="494.967" y="375.634">
      <tspan x="494.967" y="375.634"></tspan>
    </text>
  </g>
  <g>
    <ellipse style="fill: #ffffff" cx="662.867" cy="267.934" rx="46.0673" ry="39.5336"/>
    <ellipse style="fill: none; fill-opacity:0; stroke-width: 2; stroke: #000000" cx="662.867" cy="267.934" rx="46.0673" ry="39.5336"/>
    <text font-size="12.7998" style="fill: #000000;text-anchor:middle;font-family:sans-serif;font-style:normal;font-weight:normal" x="662.867" y="271.834">
      <tspan x="662.867" y="271.834"></tspan>
    </text>
  </g>
  <g>
    <ellipse style="fill: #ffffff" cx="1111.77" cy="284.134" rx="46.0673" ry="39.5336"/>
    <ellipse style="fill: none; fill-opacity:0; stroke-width: 2; stroke: #000000" cx="1111.77" cy="284.134" rx="46.0673" ry="39.5336"/>
    <text font-size="12.7998" style="fill: #000000;text-anchor:middle;font-family:sans-serif;font-style:normal;font-weight:normal" x="1111.77" y="288.034">
      <tspan x="1111.77" y="288.034"></tspan>
    </text>
  </g>
  <g>
    <ellipse style="fill: #ffffff" cx="1111.43" cy="287" rx="25.5673" ry="21"/>
    <ellipse style="fill: none; fill-opacity:0; stroke-width: 2; stroke: #000000" cx="1111.43" cy="287" rx="25.5673" ry="21"/>
    <text font-size="12.7998" style="fill: #000000;text-anchor:middle;font-family:sans-serif;font-style:normal;font-weight:normal" x="1111.43" y="290.9">
      <tspan x="1111.43" y="290.9"></tspan>
    </text>
  </g>
  <g>
    <ellipse style="fill: #ffffff" cx="664.667" cy="482.334" rx="46.0673" ry="39.5336"/>
    <ellipse style="fill: none; fill-opacity:0; stroke-width: 2; stroke: #000000" cx="664.667" cy="482.334" rx="46.0673" ry="39.5336"/>
    <text font-size="12.7998" style="fill: #000000;text-anchor:middle;font-family:sans-serif;font-style:normal;font-weight:normal" x="664.667" y="486.234">
      <tspan x="664.667" y="486.234"></tspan>
    </text>
  </g>
  <g>
    <line style="fill: none; fill-opacity:0; stroke-width: 2; stroke: #000000" x1="372" y1="373.466" x2="444.429" y2="371.834"/>
    <polyline style="fill: none; fill-opacity:0; stroke-width: 2; stroke: #000000" points="436.78,377.008 446.664,371.784 436.554,367.011 "/>
  </g>
  <g>
    <line style="fill: none; fill-opacity:0; stroke-width: 2; stroke: #000000" x1="533" y1="347" x2="626.334" y2="297.968"/>
    <polyline style="fill: none; fill-opacity:0; stroke-width: 2; stroke: #000000" points="621.786,306.005 628.313,296.928 617.135,297.152 "/>
  </g>
  <g>
    <line style="fill: none; fill-opacity:0; stroke-width: 2; stroke: #000000" x1="708.935" y1="267.934" x2="1064.73" y2="268.991"/>
    <polyline style="fill: none; fill-opacity:0; stroke-width: 2; stroke: #000000" points="1056.96,273.968 1066.97,268.998 1056.99,263.968 "/>
  </g>
  <g>
    <line style="fill: none; fill-opacity:0; stroke-width: 2; stroke: #000000" x1="535" y1="394" x2="628.295" y2="452.017"/>
    <polyline style="fill: none; fill-opacity:0; stroke-width: 2; stroke: #000000" points="619.062,452.163 630.194,453.198 624.342,443.671 "/>
  </g>
  <text font-size="12.7998" style="fill: #000000;text-anchor:start;font-family:sans-serif;font-style:normal;font-weight:normal" x="298" y="229">
    <tspan x="298" y="229"></tspan>
  </text>
  <text font-size="12.7998" style="fill: #000000;text-anchor:start;font-family:sans-serif;font-style:normal;font-weight:normal" x="327.933" y="373.466">
    <tspan x="327.933" y="373.466"></tspan>
  </text>
  <text font-size="12.7998" style="fill: #000000;text-anchor:start;font-family:sans-serif;font-style:normal;font-weight:normal" x="327.933" y="373.466">
    <tspan x="327.933" y="373.466">2</tspan>
  </text>
  <text font-size="12.7998" style="fill: #000000;text-anchor:start;font-family:sans-serif;font-style:normal;font-weight:normal" x="494.967" y="371.734">
    <tspan x="494.967" y="371.734">3</tspan>
  </text>
  <text font-size="12.7998" style="fill: #000000;text-anchor:start;font-family:sans-serif;font-style:normal;font-weight:normal" x="662.867" y="267.934">
    <tspan x="662.867" y="267.934">4</tspan>
  </text>
  <text font-size="12.7998" style="fill: #000000;text-anchor:start;font-family:sans-serif;font-style:normal;font-weight:normal" x="664.667" y="482.334">
    <tspan x="664.667" y="482.334">5</tspan>
  </text>
  <g>
    <ellipse style="fill: #ffffff" cx="792.967" cy="395.734" rx="46.0673" ry="39.5336"/>
    <ellipse style="fill: none; fill-opacity:0; stroke-width: 2; stroke: #000000" cx="792.967" cy="395.734" rx="46.0673" ry="39.5336"/>
    <text font-size="12.7998" style="fill: #000000;text-anchor:middle;font-family:sans-serif;font-style:normal;font-weight:normal" x="792.967" y="399.634">
      <tspan x="792.967" y="399.634"></tspan>
    </text>
  </g>
  <text font-size="12.7998" style="fill: #000000;text-anchor:start;font-family:sans-serif;font-style:normal;font-weight:normal" x="792.967" y="395.734">
    <tspan x="792.967" y="395.734">6-7</tspan>
  </text>
  <g>
    <line style="fill: none; fill-opacity:0; stroke-width: 2; stroke: #000000" x1="705" y1="458" x2="756.591" y2="426.043"/>
    <polyline style="fill: none; fill-opacity:0; stroke-width: 2; stroke: #000000" points="752.624,434.382 758.492,424.866 747.358,425.881 "/>
  </g>
  <g>
    <line style="fill: none; fill-opacity:0; stroke-width: 2; stroke: #000000" x1="837.48" y1="382.725" x2="1074.9" y2="313.343"/>
    <polyline style="fill: none; fill-opacity:0; stroke-width: 2; stroke: #000000" points="1068.85,320.32 1077.05,312.715 1066.05,310.721 "/>
  </g>
  <g>
    <ellipse style="fill: #ffffff" cx="786.967" cy="552.734" rx="44.0673" ry="39.5336"/>
    <ellipse style="fill: none; fill-opacity:0; stroke-width: 2; stroke: #000000" cx="786.967" cy="552.734" rx="44.0673" ry="39.5336"/>
    <text font-size="12.7998" style="fill: #000000;text-anchor:middle;font-family:sans-serif;font-style:normal;font-weight:normal" x="786.967" y="556.634">
      <tspan x="786.967" y="556.634"></tspan>
    </text>
  </g>
  <text font-size="12.7998" style="fill: #000000;text-anchor:start;font-family:sans-serif;font-style:normal;font-weight:normal" x="786.967" y="552.734">
    <tspan x="786.967" y="552.734">8</tspan>
  </text>
  <g>
    <line style="fill: none; fill-opacity:0; stroke-width: 2; stroke: #000000" x1="707.228" y1="497.463" x2="751.909" y2="522.587"/>
    <polyline style="fill: none; fill-opacity:0; stroke-width: 2; stroke: #000000" points="742.691,523.14 753.858,523.683 747.592,514.424 "/>
  </g>
  <g>
    <ellipse style="fill: #ffffff" cx="1008.97" cy="499.734" rx="44.0673" ry="39.5336"/>
    <ellipse style="fill: none; fill-opacity:0; stroke-width: 2; stroke: #000000" cx="1008.97" cy="499.734" rx="44.0673" ry="39.5336"/>
    <text font-size="12.7998" style="fill: #000000;text-anchor:middle;font-family:sans-serif;font-style:normal;font-weight:normal" x="1008.97" y="503.634">
      <tspan x="1008.97" y="503.634">9-10</tspan>
    </text>
  </g>
  <g>
    <line style="fill: none; fill-opacity:0; stroke-width: 2; stroke: #000000" x1="831.567" y1="546.88" x2="973.373" y2="528.27"/>
    <polyline style="fill: none; fill-opacity:0; stroke-width: 2; stroke: #000000" points="966.326,534.238 975.59,527.979 965.024,524.323 "/>
  </g>
  <g>
    <line style="fill: none; fill-opacity:0; stroke-width: 2; stroke: #000000" x1="1040.13" y1="471.779" x2="1109.82" y2="327.693"/>
    <polyline style="fill: none; fill-opacity:0; stroke-width: 2; stroke: #000000" points="1110.94,336.86 1110.79,325.68 1101.94,332.505 "/>
  </g>
  <g>
    <rect style="fill: #00ff00" x="159" y="558.1" width="100.1" height="46.9"/>
    <text font-size="12.7998" style="fill: #000000;text-anchor:start;font-family:sans-serif;font-style:normal;font-weight:normal" x="159" y="570">
      <tspan x="159" y="570">Calculamos CC:</tspan>
      <tspan x="159" y="586"></tspan>
      <tspan x="159" y="602">10-9+2=3</tspan>
    </text>
  </g>
  <line style="fill: none; fill-opacity:0; stroke-width: 2; stroke: #000000" x1="366" y1="678.5" x2="366" y2="678.5"/>
  <line style="fill: none; fill-opacity:0; stroke-width: 2; stroke: #000000" x1="341" y1="510" x2="340" y2="602"/>
  <line style="fill: none; fill-opacity:0; stroke-width: 2; stroke: #000000" x1="342.92" y1="603.22" x2="483" y2="603"/>
  <line style="fill: none; fill-opacity:0; stroke-width: 2; stroke: #000000" x1="562.82" y1="513.42" x2="560" y2="607"/>
  <line style="fill: none; fill-opacity:0; stroke-width: 2; stroke: #000000" x1="344" y1="513" x2="480.72" y2="512.62"/>
  <g>
    <rect style="fill: #ffc0cb" x="346" y="491.1" width="145.85" height="14.9"/>
    <text font-size="12.7998" style="fill: #000000;text-anchor:start;font-family:sans-serif;font-style:normal;font-weight:normal" x="346" y="503">
      <tspan x="346" y="503">Identificamos Caminos</tspan>
    </text>
  </g>
  <line style="fill: none; fill-opacity:0; stroke-width: 2; stroke: #000000" x1="480" y1="513" x2="561" y2="513"/>
  <line style="fill: none; fill-opacity:0; stroke-width: 2; stroke: #000000" x1="478" y1="603" x2="558" y2="604"/>
  <g>
    <rect style="fill: #ffc0cb" x="357" y="518.1" width="155.95" height="14.9"/>
    <text font-size="12.7998" style="fill: #000000;text-anchor:start;font-family:sans-serif;font-style:normal;font-weight:normal" x="357" y="530">
      <tspan x="357" y="530">Camino1: Inicio 2 3 4 fin</tspan>
    </text>
  </g>
  <g>
    <rect style="fill: #ffc0cb" x="357" y="546.1" width="180.9" height="14.9"/>
    <text font-size="12.7998" style="fill: #000000;text-anchor:start;font-family:sans-serif;font-style:normal;font-weight:normal" x="357" y="558">
      <tspan x="357" y="558">Camino2: Inicio 2 3 5 6-7 fin</tspan>
    </text>
  </g>
  <g>
    <rect style="fill: #ffc0cb" x="357" y="575.1" width="201.25" height="14.9"/>
    <text font-size="12.7998" style="fill: #000000;text-anchor:start;font-family:sans-serif;font-style:normal;font-weight:normal" x="357" y="587">
      <tspan x="357" y="587">Camino3: Inicio 2 3 5 8 9-10 fin</tspan>
    </text>
  </g>
  <g>
    <rect style="fill: #ffffff" x="1123" y="504" width="412" height="206"/>
    <rect style="fill: none; fill-opacity:0; stroke-width: 2; stroke: #000000" x="1123" y="504" width="412" height="206"/>
    <text font-size="12.7998" style="fill: #000000;text-anchor:middle;font-family:sans-serif;font-style:normal;font-weight:normal" x="1329" y="610.9">
      <tspan x="1329" y="610.9"></tspan>
    </text>
  </g>
  <line style="fill: none; fill-opacity:0; stroke-width: 2; stroke: #000000" x1="1126" y1="549" x2="1536" y2="549"/>
  <line style="fill: none; fill-opacity:0; stroke-width: 2; stroke: #000000" x1="1185" y1="501" x2="1185" y2="708"/>
  <line style="fill: none; fill-opacity:0; stroke-width: 2; stroke: #000000" x1="1314.9" y1="504.2" x2="1314.9" y2="711.2"/>
  <text font-size="12.7998" style="fill: #000000;text-anchor:start;font-family:sans-serif;font-style:normal;font-weight:normal" x="1133" y="534">
    <tspan x="1133" y="534">Camino</tspan>
  </text>
  <text font-size="12.7998" style="fill: #000000;text-anchor:start;font-family:sans-serif;font-style:normal;font-weight:normal" x="1195" y="533">
    <tspan x="1195" y="533">Casos de Prueba</tspan>
  </text>
  <text font-size="11.8419" style="fill: #000000;text-anchor:start;font-family:sans-serif;font-style:normal;font-weight:normal" x="1345" y="530">
    <tspan x="1345" y="530">Resultado Esperado</tspan>
  </text>
  <text font-size="12.7998" style="fill: #000000;text-anchor:start;font-family:sans-serif;font-style:normal;font-weight:normal" x="1146" y="578">
    <tspan x="1146" y="578">1</tspan>
  </text>
  <text font-size="12.7998" style="fill: #000000;text-anchor:start;font-family:sans-serif;font-style:normal;font-weight:normal" x="1149" y="627">
    <tspan x="1149" y="627">2</tspan>
  </text>
  <text font-size="12.7998" style="fill: #000000;text-anchor:start;font-family:sans-serif;font-style:normal;font-weight:normal" x="1153" y="680">
    <tspan x="1153" y="680">3</tspan>
  </text>
  <line style="fill: none; fill-opacity:0; stroke-width: 2; stroke: #000000" x1="1125" y1="594" x2="1531" y2="592"/>
  <line style="fill: none; fill-opacity:0; stroke-width: 2; stroke: #000000" x1="1123.9" y1="654.205" x2="1529.9" y2="652.205"/>
  <text font-size="12.7998" style="fill: #000000;text-anchor:start;font-family:sans-serif;font-style:normal;font-weight:normal" x="1196" y="573">
    <tspan x="1196" y="573">edadPerro (-1);</tspan>
  </text>
  <text font-size="10.7243" style="fill: #000000;text-anchor:start;font-family:sans-serif;font-style:normal;font-weight:normal" x="1320" y="577">
    <tspan x="1320" y="577">"La edad debe ser un número positivo.";</tspan>
  </text>
  <text font-size="12.7998" style="fill: #000000;text-anchor:start;font-family:sans-serif;font-style:normal;font-weight:normal" x="1205" y="624">
    <tspan x="1205" y="624">edadPerro(1);</tspan>
  </text>
  <text font-size="12.7998" style="fill: #000000;text-anchor:start;font-family:sans-serif;font-style:normal;font-weight:normal" x="1363" y="623">
    <tspan x="1363" y="623">"La edad es 10.5"</tspan>
  </text>
  <text font-size="12.7998" style="fill: #000000;text-anchor:start;font-family:sans-serif;font-style:normal;font-weight:normal" x="1213" y="676">
    <tspan x="1213" y="676">edadPerro(3);</tspan>
  </text>
  <text font-size="12.7998" style="fill: #000000;text-anchor:start;font-family:sans-serif;font-style:normal;font-weight:normal" x="1364" y="680">
    <tspan x="1364" y="680">"La edad es 25.0"</tspan>
  </text>
</svg>
